<?xml version="1.0" encoding="UTF-8"?>
<!DOCTYPE svg PUBLIC "-//W3C//DTD SVG 1.1//EN" "http://www.w3.org/Graphics/SVG/1.1/DTD/svg11.dtd">
<!-- Creator: CorelDRAW 2020 (64-Bit) -->
<svg xmlns="http://www.w3.org/2000/svg" xml:space="preserve" width="3016px" height="2398px" version="1.1" style="shape-rendering:geometricPrecision; text-rendering:geometricPrecision; image-rendering:optimizeQuality; fill-rule:evenodd; clip-rule:evenodd"
viewBox="0 0 90859 72225"
 xmlns:xlink="http://www.w3.org/1999/xlink"
 xmlns:xodm="http://www.corel.com/coreldraw/odm/2003">
 <defs>
  <style type="text/css">
   <![CDATA[
    .str0 {stroke:#E0001B;stroke-width:27;stroke-miterlimit:22.9256}
    .fil4 {fill:none;fill-rule:nonzero}
    .fil2 {fill:#003880}
    .fil1 {fill:#003880}
    .fil0 {fill:#003880;fill-rule:nonzero}
    .fil3 {fill:#E0001B;fill-rule:nonzero}
   ]]>
  </style>
 </defs>
 <g id="Capa_x0020_1">
  <metadata id="CorelCorpID_0Corel-Layer"/>
  <g id="_2409200787456">
   <path class="fil0" d="M34215 5158c0,3165 -2180,4547 -4552,4547 -2372,0 -4552,-1382 -4552,-4547 0,-2802 1957,-4513 4552,-4513 2598,0 4552,1711 4552,4513z"/>
   <polygon class="fil0" points="25783,10297 33519,10297 33506,32198 25783,32198 "/>
   <polygon class="fil1" points="0,42518 39615,42518 39615,34780 0,34780 "/>
   <path class="fil2" d="M47067 24520c1567,0 2316,-1373 2316,-2990 0,-1617 -854,-3113 -2386,-3113 -1496,0 -2531,1374 -2531,3071 0,1738 998,3032 2601,3032zm-1717 10262c0,0 1515,167 2690,-1013 1220,-1219 168,-3069 168,-3069 -1182,1333 -3074,1989 -4702,1989 -5163,0 -8120,-5906 -8120,-11241 0,-5338 2921,-11199 8155,-11199 2420,0 4273,1292 5521,3558l246 0 -328 -3508 7945 0 30 20649c0,1593 22,2788 -84,3835 -149,1474 -554,2654 -1637,4201 -1965,2817 -4753,3534 -9913,3534l-4137 0 0 -7736 4166 0z"/>
   <path class="fil1" d="M10552 12387c1511,0 3212,-171 3212,-2394 0,-2390 -1929,-2219 -3439,-2219l-718 0 0 4613 945 0zm-945 12131l1172 0c1701,0 4159,-42 4159,-2692 0,-2690 -2646,-2647 -4311,-2647l-1020 0 0 5339zm-9607 -24518l12063 0c5520,0 11159,1494 11159,8926 0,2822 -1250,5596 -3747,6493l0 257c3101,1237 5070,3803 5070,7648 0,6617 -5448,8884 -10439,8884l-14106 0 0 -32208z"/>
   <path class="fil3" d="M12326 72211l0 -27949 10806 0c2095,0 3907,426 5435,1278 1529,852 2710,2069 3544,3653 833,1584 1250,3454 1250,5610 0,2156 -417,4013 -1250,5570 -834,1557 -2015,2748 -3544,3573 -1528,826 -3340,1238 -5435,1238l-6605 0 3367 -3873 0 10900 -7568 0zm13436 0l-5516 -10181 8017 0 5579 10181 -8080 0zm-5868 -9862l-3367 -4272 6124 0c1048,0 1823,-293 2325,-878 502,-586 754,-1384 754,-2396 0,-1011 -252,-1810 -754,-2396 -502,-585 -1277,-878 -2325,-878l-6124 0 3367 -4272 0 15092z"/>
   <path id="1" class="fil4 str0" d="M12326 72211l0 -27949 10806 0c2095,0 3907,426 5435,1278 1529,852 2710,2069 3544,3653 833,1584 1250,3454 1250,5610 0,2156 -417,4013 -1250,5570 -834,1557 -2015,2748 -3544,3573 -1528,826 -3340,1238 -5435,1238l-6605 0 3367 -3873 0 10900 -7568 0zm13436 0l-5516 -10181 8017 0 5579 10181 -8080 0zm-5868 -9862l-3367 -4272 6124 0c1048,0 1823,-293 2325,-878 502,-586 754,-1384 754,-2396 0,-1011 -252,-1810 -754,-2396 -502,-585 -1277,-878 -2325,-878l-6124 0 3367 -4272 0 15092z"/>
   <path class="fil3" d="M44724 72211c-1892,0 -3543,-435 -4953,-1307 -1410,-872 -2503,-2068 -3279,-3588 -776,-1520 -1164,-3235 -1164,-5143 0,-1956 383,-3688 1150,-5197 766,-1508 1817,-2686 3151,-3534 1334,-849 2834,-1273 4499,-1273 1533,0 2948,377 4244,1131 1297,754 2338,1874 3123,3358 785,1485 1178,3323 1178,5515 0,282 -9,595 -28,936 -19,342 -38,654 -57,937l-11951 0 0 -3853 8544 0 -2413 1025c0,-754 -108,-1396 -326,-1926 -218,-530 -516,-943 -894,-1237 -379,-295 -833,-442 -1363,-442 -530,0 -989,147 -1377,442 -388,294 -686,707 -894,1237 -208,530 -312,1172 -312,1926l0 1202c0,825 132,1532 397,2121 265,589 644,1031 1136,1325 492,295 1088,442 1788,442 719,0 1311,-117 1774,-353 464,-236 951,-589 1462,-1061l3350 4207c-757,1013 -1689,1785 -2796,2315 -1107,530 -2437,795 -3989,795z"/>
   <path id="1" class="fil3" d="M67797 52169c1192,0 2271,301 3236,902 965,600 1727,1537 2285,2810 559,1272 838,2922 838,4948l0 11029 -6416 0 0 -9650c0,-1202 -170,-2056 -511,-2563 -340,-506 -804,-760 -1391,-760 -435,0 -837,124 -1206,371 -369,248 -663,654 -880,1220 -218,565 -327,1331 -327,2298l0 9084 -6415 0 0 -19335 6103 0 0 5655 -1221 -1626c606,-1461 1425,-2557 2456,-3287 1031,-731 2181,-1096 3449,-1096z"/>
   <path id="2" class="fil4 str0" d="M44724 72211c-1892,0 -3543,-435 -4953,-1307 -1410,-872 -2503,-2068 -3279,-3588 -776,-1520 -1164,-3235 -1164,-5143 0,-1956 383,-3688 1150,-5197 766,-1508 1817,-2686 3151,-3534 1334,-849 2834,-1273 4499,-1273 1533,0 2948,377 4244,1131 1297,754 2338,1874 3123,3358 785,1485 1178,3323 1178,5515 0,282 -9,595 -28,936 -19,342 -38,654 -57,937l-11951 0 0 -3853 8544 0 -2413 1025c0,-754 -108,-1396 -326,-1926 -218,-530 -516,-943 -894,-1237 -379,-295 -833,-442 -1363,-442 -530,0 -989,147 -1377,442 -388,294 -686,707 -894,1237 -208,530 -312,1172 -312,1926l0 1202c0,825 132,1532 397,2121 265,589 644,1031 1136,1325 492,295 1088,442 1788,442 719,0 1311,-117 1774,-353 464,-236 951,-589 1462,-1061l3350 4207c-757,1013 -1689,1785 -2796,2315 -1107,530 -2437,795 -3989,795z"/>
   <path id="3" class="fil4 str0" d="M67797 52169c1192,0 2271,301 3236,902 965,600 1727,1537 2285,2810 559,1272 838,2922 838,4948l0 11029 -6416 0 0 -9650c0,-1202 -170,-2056 -511,-2563 -340,-506 -804,-760 -1391,-760 -435,0 -837,124 -1206,371 -369,248 -663,654 -880,1220 -218,565 -327,1331 -327,2298l0 9084 -6415 0 0 -19335 6103 0 0 5655 -1221 -1626c606,-1461 1425,-2557 2456,-3287 1031,-731 2181,-1096 3449,-1096z"/>
   <polygon class="fil0" points="90859,53527 88145,53527 88145,49648 80706,49648 80706,53527 77991,53527 77991,60328 80706,60328 80706,72211 88145,72211 88145,60328 90859,60328 "/>
   <path class="fil0" d="M58446 34782l3962 0 12986 0c7013,0 12750,5738 12750,12750l0 4789 -7438 0 0 -4378c0,-2984 -2441,-5425 -5425,-5425l-4287 0 0 2 -17064 -2c0,0 1999,-1216 3324,-3699 1349,-2522 1192,-4037 1192,-4037z"/>
  </g>
 </g>
</svg>
